<svg width="20" height="20" viewBox="0 0 20 20" fill="none" xmlns="http://www.w3.org/2000/svg">
<ellipse cx="10" cy="10" rx="10" ry="10" fill="#CDD5DC"/>
<path d="M0.41125 12.9163C1.03849 14.9668 2.30748 16.7618 4.03142 18.037C5.75536 19.3123 7.84316 20.0004 9.9875 20C15.5175 20 20 15.5225 20 10C20 4.4775 15.5175 7.4973e-07 9.98875 7.4973e-07C7.45034 -0.000981229 5.00641 0.962699 3.15182 2.69591C1.29723 4.42912 0.17058 6.80233 0 9.335L0.00375 9.3425L5.38375 11.5538C5.86898 11.2325 6.44367 11.0736 7.025 11.1L9.475 7.545L9.47375 7.495C9.47474 6.4867 9.87564 5.51997 10.5885 4.80688C11.3014 4.09379 12.268 3.69257 13.2763 3.69125C14.2845 3.69257 15.2511 4.09379 15.964 4.80688C16.6769 5.51997 17.0778 6.4867 17.0788 7.495C17.0784 8.00166 16.9769 8.50315 16.7803 8.97011C16.5837 9.43706 16.2959 9.8601 15.9337 10.2144C15.5716 10.5688 15.1424 10.8473 14.6713 11.0337C14.2001 11.2201 13.6965 11.3106 13.19 11.3L9.685 13.8C9.69689 14.2631 9.59282 14.7218 9.38226 15.1344C9.17169 15.547 8.86131 15.9004 8.47935 16.1625C8.09739 16.4246 7.65596 16.5871 7.19522 16.6351C6.73448 16.6831 6.26905 16.6152 5.84125 16.4375C5.43065 16.2664 5.06728 15.999 4.78183 15.6578C4.49638 15.3167 4.29724 14.9118 4.20125 14.4775L0.4125 12.9163H0.41125Z" fill="url(#paint0_linear_8105_383)"/>
<path d="M6.08639 15.8527C6.60718 16.0515 7.18492 16.0396 7.69709 15.8196C8.20927 15.5995 8.61559 15.1886 8.82988 14.674C9.04418 14.1594 9.0496 13.5816 8.84499 13.063C8.64038 12.5445 8.24184 12.1261 7.73389 11.8965C7.23025 11.6863 6.66518 11.6774 6.15514 11.8715L7.43389 12.4015C7.62512 12.4811 7.79881 12.5976 7.94502 12.7443C8.09123 12.891 8.20711 13.0651 8.28604 13.2567C8.36497 13.4482 8.40541 13.6534 8.40504 13.8605C8.40467 14.0677 8.3635 14.2727 8.28389 14.464C8.20427 14.6552 8.08777 14.8289 7.94103 14.9751C7.7943 15.1213 7.6202 15.2372 7.42868 15.3161C7.23716 15.395 7.03196 15.4355 6.82482 15.4351C6.61767 15.4347 6.41262 15.3936 6.22139 15.314L4.98389 14.8015C5.20909 15.2756 5.60181 15.6496 6.08639 15.8515V15.8527ZM10.7439 7.49395C10.7442 8.16608 11.0112 8.81061 11.4862 9.28611C11.9612 9.7616 12.6055 10.0292 13.2776 10.0302C13.9498 10.0292 14.594 9.7616 15.0691 9.28611C15.5441 8.81061 15.8111 8.16608 15.8114 7.49395C15.8104 6.82227 15.5431 6.17837 15.0682 5.70342C14.5932 5.22846 13.9493 4.9612 13.2776 4.96021C12.6059 4.9612 11.9621 5.22846 11.4871 5.70342C11.0121 6.17837 10.7449 6.82227 10.7439 7.49395V7.49395ZM13.2814 5.5852C13.5316 5.58537 13.7792 5.63481 14.0103 5.73069C14.2414 5.82658 14.4513 5.96704 14.6281 6.14405C14.8048 6.32106 14.945 6.53116 15.0406 6.76235C15.1362 6.99354 15.1853 7.24129 15.1851 7.49145C15.185 7.74162 15.1355 7.98931 15.0396 8.22037C14.9438 8.45143 14.8033 8.66135 14.6263 8.83813C14.4493 9.01491 14.2392 9.15509 14.008 9.25067C13.7768 9.34626 13.5291 9.39537 13.2789 9.39521C12.7736 9.39487 12.2892 9.19385 11.9322 8.83636C11.5752 8.47887 11.3748 7.99419 11.3751 7.48896C11.3755 6.98372 11.5765 6.49931 11.934 6.14228C12.2915 5.78526 12.7761 5.58487 13.2814 5.5852V5.5852Z" fill="url(#paint1_linear_8105_383)"/>
<defs>
<linearGradient id="paint0_linear_8105_383" x1="10" y1="0" x2="10" y2="20" gradientUnits="userSpaceOnUse">
<stop offset="0.135417" stop-color="#13192E"/>
<stop offset="1" stop-color="#0073A3"/>
</linearGradient>
<linearGradient id="paint1_linear_8105_383" x1="10.3976" y1="4.96021" x2="10.3976" y2="15.9936" gradientUnits="userSpaceOnUse">
<stop stop-color="#0F2E4A"/>
<stop offset="1" stop-color="#07547A"/>
</linearGradient>
</defs>
</svg>
