<svg width="16" height="16" viewBox="0 0 16 16" fill="none" xmlns="http://www.w3.org/2000/svg">
  <path d="M14.0492 0.33474C14.4955 -0.11158 15.219 -0.11158 15.6653 0.33474C16.1115 0.781066 16.1116 1.50454 15.6653 1.95083L9.61612 8.00002L15.6653 14.0492C16.1115 14.4955 16.1116 15.219 15.6653 15.6653C15.219 16.1116 14.4955 16.1115 14.0492 15.6653L8.00002 9.61612L1.95083 15.6653C1.50454 16.1116 0.781066 16.1115 0.33474 15.6653C-0.11158 15.219 -0.11158 14.4955 0.33474 14.0492L6.38393 8.00002L0.33474 1.95083C-0.11158 1.50451 -0.11158 0.781059 0.33474 0.33474C0.781059 -0.11158 1.50451 -0.11158 1.95083 0.33474L8.00002 6.38393L14.0492 0.33474Z" fill="#C7CBD4" />
</svg>