<svg width="24" height="24" viewBox="0 0 24 24" fill="none" xmlns="http://www.w3.org/2000/svg">
<path d="M17.2696 22C16.7765 22 16.1437 21.8407 15.3528 21.3724L12.5706 19.7143C12.2822 19.5457 11.7239 19.5457 11.4447 19.7143L8.65319 21.3724C7.00621 22.356 6.03849 21.9625 5.60115 21.644C5.17312 21.3255 4.50316 20.5105 4.94049 18.637L5.60115 15.7611C5.67559 15.4614 5.52671 14.9461 5.30339 14.7213L2.99575 12.3981C1.84192 11.2365 1.93497 10.2436 2.09316 9.75644C2.25135 9.26932 2.75382 8.40749 4.35428 8.13583L7.32258 7.63934C7.60173 7.59251 8.00184 7.29274 8.12281 7.03981L9.7698 3.73302C10.5142 2.22482 11.4912 2 12.003 2C12.5148 2 13.4918 2.22482 14.2362 3.73302L15.8739 7.03044C16.0042 7.28337 16.4043 7.58314 16.6834 7.62998L19.6517 8.12646C21.2615 8.39813 21.764 9.25995 21.9128 9.74707C22.0617 10.2342 22.1548 11.2272 21.0103 12.3888L18.7026 14.7213C18.4793 14.9461 18.3397 15.452 18.4049 15.7611L19.0655 18.637C19.4935 20.5105 18.8329 21.3255 18.4049 21.644C18.1722 21.8126 17.8 22 17.2696 22Z" fill="#22C55E"/>
</svg>
